<?xml version="1.0" encoding="iso-8859-1"?>
<!-- Uploaded to: SVG Repo, www.svgrepo.com, Generator: SVG Repo Mixer Tools -->
<!DOCTYPE svg PUBLIC "-//W3C//DTD SVG 1.1//EN" "http://www.w3.org/Graphics/SVG/1.1/DTD/svg11.dtd">
<svg fill="#000000" height="800px" width="800px" version="1.1" id="Capa_1" xmlns="http://www.w3.org/2000/svg" xmlns:xlink="http://www.w3.org/1999/xlink" 
	 viewBox="0 0 196.334 196.334" xml:space="preserve">
<path d="M183.937,177.471c-1.273,0-2.433-0.813-2.845-2.054c-0.043-0.118-5.695-15.086-40.311-35.417
	c-30.096-17.678-61.706-18.789-70.449-18.702c-1.271,3.908-4.948,6.74-9.274,6.74h-5.879l6.073,35.863l0,0
	c0.308,1.816-0.198,3.664-1.387,5.071c-1.188,1.406-2.926,2.213-4.767,2.213H41.84c-3.055,0-5.643-2.186-6.154-5.198l-6.427-37.949
	h-8.461c-5.376,0-9.75-4.374-9.75-9.75v-2.385H7.482c-4.126,0-7.482-3.356-7.482-7.482V87.896c0-4.125,3.356-7.482,7.482-7.482
	h3.565v-2.385c0-5.376,4.374-9.75,9.75-9.75h40.26c4.326,0,8.004,2.833,9.275,6.741c8.732,0.068,40.354-1.025,70.448-18.702
	c34.615-20.331,40.268-35.299,40.32-35.448c0.49-1.375,1.908-2.212,3.343-1.964c1.438,0.249,2.494,1.481,2.494,2.941v53.169
	c5.36,1.137,9.396,5.906,9.396,11.6v23.084c0,5.694-4.035,10.463-9.396,11.6v53.169c0,1.472-1.067,2.727-2.521,2.961
	C184.257,177.459,184.096,177.471,183.937,177.471z M35.345,128.039l6.257,36.946c0.02,0.116,0.12,0.201,0.238,0.201h13.259
	c0.03,0,0.111,0,0.184-0.085c0.072-0.085,0.059-0.166,0.054-0.196l-6.243-36.865H35.345z M71.581,115.274
	c10.824,0,41.874,1.717,72.239,19.552c20.53,12.059,31.438,22.446,37.118,29.417V32.075c-5.68,6.971-16.588,17.358-37.118,29.417
	c-31.121,18.279-62.938,19.626-73.013,19.549v4.374c8.402-0.255,32.522-1.418,49.752-6.556
	c27.125-8.088,45.362-22.801,45.543-22.949c1.281-1.046,3.173-0.857,4.221,0.427c1.047,1.283,0.857,3.171-0.424,4.219
	c-0.774,0.633-19.292,15.604-47.625,24.053c-18.246,5.44-42.965,6.58-51.467,6.815v23.854
	C71.053,115.275,71.311,115.274,71.581,115.274z M51.628,122.039h9.43c2.067,0,3.75-1.682,3.75-3.75v-40.26
	c0-2.068-1.683-3.75-3.75-3.75h-40.26c-2.067,0-3.75,1.682-3.75,3.75v40.26c0,2.068,1.683,3.75,3.75,3.75H51.628z M186.938,81.303
	v33.712c2.003-0.932,3.396-2.963,3.396-5.314V86.617C190.334,84.266,188.941,82.234,186.938,81.303z M7.482,86.414
	C6.665,86.414,6,87.079,6,87.896v20.526c0,0.817,0.665,1.482,1.482,1.482h3.565v-23.49H7.482z"/>
</svg>